<?xml version="1.0" encoding="UTF-8" standalone="no"?>
<!-- Created with Inkscape (http://www.inkscape.org/) -->

<svg
   xmlns:dc="http://purl.org/dc/elements/1.1/"
   xmlns:cc="http://creativecommons.org/ns#"
   xmlns:rdf="http://www.w3.org/1999/02/22-rdf-syntax-ns#"
   xmlns:svg="http://www.w3.org/2000/svg"
   xmlns="http://www.w3.org/2000/svg"
   xmlns:xlink="http://www.w3.org/1999/xlink"
   xmlns:sodipodi="http://sodipodi.sourceforge.net/DTD/sodipodi-0.dtd"
   xmlns:inkscape="http://www.inkscape.org/namespaces/inkscape"
   width="3840mm"
   height="2160mm"
   viewBox="0 0 3840 2160"
   version="1.1"
   id="svg8"
   inkscape:version="0.92.4 (5da689c313, 2019-01-14)"
   sodipodi:docname="fenr-2019-wallpaper.svg"
   inkscape:export-filename="fenr-2019-wallaper.png"
   inkscape:export-xdpi="25.4"
   inkscape:export-ydpi="25.4">
  <defs
     id="defs2">
    <linearGradient
       inkscape:collect="always"
       xlink:href="#linearGradient2372"
       id="linearGradient2374"
       x1="528.80176"
       y1="-105.02678"
       x2="526.17773"
       y2="95.916069"
       gradientUnits="userSpaceOnUse"
       gradientTransform="matrix(2.5661148,0,0,2.5076996,538.54619,-630.78105)" />
    <linearGradient
       inkscape:collect="always"
       id="linearGradient2372">
      <stop
         style="stop-color:#eaa900;stop-opacity:1"
         offset="0"
         id="stop2368" />
      <stop
         style="stop-color:#f700ff;stop-opacity:0"
         offset="1"
         id="stop2370" />
    </linearGradient>
  </defs>
  <sodipodi:namedview
     id="base"
     pagecolor="#2f0076"
     bordercolor="#666666"
     borderopacity="1.0"
     inkscape:pageopacity="1"
     inkscape:pageshadow="2"
     inkscape:zoom="0.087499998"
     inkscape:cx="6805.6094"
     inkscape:cy="3421.0568"
     inkscape:document-units="mm"
     inkscape:current-layer="layer2"
     showgrid="false"
     showguides="true"
     inkscape:pagecheckerboard="true"
     inkscape:window-width="1920"
     inkscape:window-height="1001"
     inkscape:window-x="-9"
     inkscape:window-y="-9"
     inkscape:window-maximized="1"
     fit-margin-top="0"
     fit-margin-left="0"
     fit-margin-right="0"
     fit-margin-bottom="0"
     inkscape:guide-bbox="true">
    <sodipodi:guide
       position="2028.9763,619.88098"
       orientation="0,1"
       id="guide885"
       inkscape:locked="false" />
    <sodipodi:guide
       position="1300.2381,1593.5477"
       orientation="1,0"
       id="guide897"
       inkscape:locked="false" />
    <sodipodi:guide
       position="2467.4287,1215.5715"
       orientation="1,0"
       id="guide899"
       inkscape:locked="false" />
    <sodipodi:guide
       position="1923.1429,1463.5239"
       orientation="0,1"
       id="guide841"
       inkscape:locked="false" />
  </sodipodi:namedview>
  <metadata
     id="metadata5">
    <rdf:RDF>
      <cc:Work
         rdf:about="">
        <dc:format>image/svg+xml</dc:format>
        <dc:type
           rdf:resource="http://purl.org/dc/dcmitype/StillImage" />
        <dc:title></dc:title>
      </cc:Work>
    </rdf:RDF>
  </metadata>
  <g
     inkscape:label="Layer 1"
     inkscape:groupmode="layer"
     id="layer1"
     transform="translate(-15.891789,2002.6687)" />
  <g
     inkscape:groupmode="layer"
     id="layer2"
     inkscape:label="Layer 2"
     transform="translate(-15.891789,2002.6687)">
    <g
       style="font-style:normal;font-weight:normal;font-size:medium;line-height:1.25;font-family:sans-serif;letter-spacing:0px;word-spacing:0px;fill:#000000;fill-opacity:1;stroke:none;stroke-width:0.26458332"
       id="g860"
       transform="matrix(1.4285818,0,0,1.4694884,-1372.265,9.6607197)">
      <g
         id="g895"
         transform="translate(13.634211,-28.8925)">
        <path
           id="path847"
           style="font-style:normal;font-variant:normal;font-weight:bold;font-stretch:normal;font-size:158.75px;font-family:Ubuntu;-inkscape-font-specification:'Ubuntu Bold';fill:#ffffff;stroke-width:0.26458332"
           d="m 1328.9804,-326.47821 v -110.01375 h 73.66 v 20.79625 h -48.895 v 23.01875 h 43.4975 v 20.79625 h -43.4975 v 45.4025 z"
           inkscape:connector-curvature="0" />
        <path
           id="path849"
           style="font-style:normal;font-variant:normal;font-weight:bold;font-stretch:normal;font-size:158.75px;font-family:Ubuntu;-inkscape-font-specification:'Ubuntu Bold';fill:#ffffff;stroke-width:0.26458332"
           d="m 1413.0311,-367.59446 q 0,-11.1125 3.3337,-19.3675 3.4925,-8.41375 9.0488,-13.97 5.5562,-5.55625 12.7,-8.41375 7.3025,-2.8575 14.9225,-2.8575 17.78,0 28.0987,10.95375 10.3188,10.795 10.3188,31.90875 0,2.06375 -0.1588,4.60375 -0.1587,2.38125 -0.3175,4.28625 h -53.6575 q 0.7938,7.3025 6.8263,11.58875 6.0325,4.28625 16.1925,4.28625 6.5087,0 12.7,-1.11125 6.35,-1.27 10.3187,-3.01625 l 3.175,19.20875 q -1.905,0.9525 -5.08,1.905 -3.175,0.9525 -7.1437,1.5875 -3.81,0.79375 -8.255,1.27 -4.445,0.47625 -8.89,0.47625 -11.2713,0 -19.685,-3.33375 -8.255,-3.33375 -13.8113,-9.04875 -5.3975,-5.87375 -8.0962,-13.81125 -2.54,-7.9375 -2.54,-17.145 z m 55.5625,-9.04875 q -0.1588,-3.01625 -1.1113,-5.87375 -0.7937,-2.8575 -2.6987,-5.08 -1.7463,-2.2225 -4.6038,-3.65125 -2.6987,-1.42875 -6.8262,-1.42875 -3.9688,0 -6.8263,1.42875 -2.8575,1.27 -4.7625,3.4925 -1.905,2.2225 -3.0162,5.23875 -0.9525,2.8575 -1.4288,5.87375 z"
           inkscape:connector-curvature="0" />
        <path
           id="path851"
           style="font-style:normal;font-variant:normal;font-weight:bold;font-stretch:normal;font-size:158.75px;font-family:Ubuntu;-inkscape-font-specification:'Ubuntu Bold';fill:#ffffff;stroke-width:0.26458332"
           d="m 1509.7073,-407.12321 q 6.0325,-1.74625 15.5575,-3.175 9.525,-1.5875 20.0025,-1.5875 10.6363,0 17.6213,2.8575 7.1437,2.69875 11.2712,7.77875 4.1275,5.08 5.8738,12.065 1.7462,6.985 1.7462,15.5575 v 47.14875 h -23.6537 v -44.29125 q 0,-11.43 -3.0163,-16.1925 -3.0162,-4.7625 -11.2712,-4.7625 -2.54,0 -5.3975,0.3175 -2.8575,0.15875 -5.08,0.47625 v 64.4525 h -23.6538 z"
           inkscape:connector-curvature="0" />
        <path
           id="path853"
           style="font-style:normal;font-variant:normal;font-weight:bold;font-stretch:normal;font-size:158.75px;font-family:Ubuntu;-inkscape-font-specification:'Ubuntu Bold';fill:#ffffff;stroke-width:0.26458332"
           d="m 1603.345,-407.12321 q 6.0325,-1.74625 15.5575,-3.175 9.525,-1.5875 20.0025,-1.5875 10.6363,0 17.6213,2.8575 7.1437,2.69875 11.2712,7.77875 4.1275,5.08 5.8738,12.065 1.7462,6.985 1.7462,15.5575 v 47.14875 h -23.6537 v -44.29125 q 0,-11.43 -3.0163,-16.1925 -3.0162,-4.7625 -11.2712,-4.7625 -2.54,0 -5.3975,0.3175 -2.8575,0.15875 -5.08,0.47625 v 64.4525 h -23.6538 z"
           inkscape:connector-curvature="0" />
        <path
           id="path855"
           style="font-style:normal;font-variant:normal;font-weight:bold;font-stretch:normal;font-size:158.75px;font-family:Ubuntu;-inkscape-font-specification:'Ubuntu Bold';fill:#ffffff;stroke-width:0.26458332"
           d="m 1693.014,-367.59446 q 0,-11.1125 3.3337,-19.3675 3.4925,-8.41375 9.0488,-13.97 5.5562,-5.55625 12.7,-8.41375 7.3025,-2.8575 14.9225,-2.8575 17.78,0 28.0987,10.95375 10.3188,10.795 10.3188,31.90875 0,2.06375 -0.1588,4.60375 -0.1587,2.38125 -0.3175,4.28625 h -53.6575 q 0.7938,7.3025 6.8263,11.58875 6.0325,4.28625 16.1925,4.28625 6.5087,0 12.7,-1.11125 6.35,-1.27 10.3187,-3.01625 l 3.175,19.20875 q -1.905,0.9525 -5.08,1.905 -3.175,0.9525 -7.1437,1.5875 -3.81,0.79375 -8.255,1.27 -4.445,0.47625 -8.89,0.47625 -11.2713,0 -19.685,-3.33375 -8.255,-3.33375 -13.8113,-9.04875 -5.3975,-5.87375 -8.0962,-13.81125 -2.54,-7.9375 -2.54,-17.145 z m 55.5625,-9.04875 q -0.1588,-3.01625 -1.1113,-5.87375 -0.7937,-2.8575 -2.6987,-5.08 -1.7463,-2.2225 -4.6038,-3.65125 -2.6987,-1.42875 -6.8262,-1.42875 -3.9688,0 -6.8263,1.42875 -2.8575,1.27 -4.7625,3.4925 -1.905,2.2225 -3.0162,5.23875 -0.9525,2.8575 -1.4288,5.87375 z"
           inkscape:connector-curvature="0" />
        <path
           id="path857"
           style="font-style:normal;font-variant:normal;font-weight:bold;font-stretch:normal;font-size:158.75px;font-family:Ubuntu;-inkscape-font-specification:'Ubuntu Bold';fill:#ffffff;stroke-width:0.26458332"
           d="m 1785.7215,-368.22946 q 0,-9.04875 2.8575,-16.98625 3.0163,-8.09625 8.5725,-13.97 5.5563,-6.0325 13.4938,-9.525 7.9375,-3.4925 18.0975,-3.4925 6.6675,0 12.2237,1.27 5.5563,1.11125 10.795,3.33375 l -4.9212,18.89125 q -3.3338,-1.27 -7.3025,-2.2225 -3.9688,-0.9525 -8.89,-0.9525 -10.4775,0 -15.7163,6.50875 -5.08,6.50875 -5.08,17.145 0,11.27125 4.7625,17.4625 4.9213,6.19125 16.9863,6.19125 4.2862,0 9.2075,-0.79375 4.9212,-0.79375 9.0487,-2.54 l 3.3338,19.3675 q -4.1275,1.74625 -10.3188,3.01625 -6.1912,1.27 -13.6525,1.27 -11.43,0 -19.685,-3.33375 -8.255,-3.4925 -13.6525,-9.36625 -5.2387,-5.87375 -7.7787,-13.81125 -2.3813,-8.09625 -2.3813,-17.4625 z"
           inkscape:connector-curvature="0" />
      </g>
    </g>
    <g
       id="g883"
       transform="translate(541.03282,-262.08018)">
      <path
         inkscape:connector-curvature="0"
         d="m 2016.8267,-411.5727 q 35.3788,0 54.2022,13.06375 18.8233,12.83047 18.8233,40.12438 0,17.02953 -7.7108,27.76047 -7.4839,10.49766 -21.7716,16.56297 4.7626,6.06532 9.9787,13.99688 5.2162,7.69828 10.2055,16.32969 5.216,8.39813 9.9786,17.72938 4.7625,9.09797 8.8447,17.96266 h -39.6878 q -4.309,-7.93157 -8.8447,-16.09641 -4.3089,-8.16485 -9.0715,-15.86313 -4.5358,-7.69828 -9.0715,-14.46344 -4.5358,-6.99844 -9.0715,-12.59719 h -17.4626 v 59.02017 h -35.3788 v -159.33112 q 11.5661,-2.33281 23.8126,-3.26594 12.4734,-0.93312 22.2252,-0.93312 z m 2.0411,31.02641 q -3.8554,0 -7.0305,0.23328 -2.9481,0.23328 -5.6696,0.46656 v 43.85688 h 9.9787 q 19.9573,0 28.5752,-5.13218 8.6179,-5.13219 8.6179,-17.4961 0,-11.89735 -8.8448,-16.79625 -8.6179,-5.13219 -25.6269,-5.13219 z"
         style="font-style:normal;font-variant:normal;font-weight:bold;font-stretch:normal;font-size:158.75px;line-height:1.25;font-family:Ubuntu;-inkscape-font-specification:'Ubuntu Bold';letter-spacing:0px;word-spacing:0px;fill:#ffffff;fill-opacity:1;stroke:none;stroke-width:0.38335231"
         id="path859" />
      <path
         inkscape:connector-curvature="0"
         d="m 2108.5799,-308.46237 q 0,-16.32969 4.7625,-28.46032 4.9893,-12.36391 12.9269,-20.52875 7.9375,-8.16485 18.143,-12.36391 10.4322,-4.19907 21.318,-4.19907 25.4002,0 40.1413,16.09641 14.7413,15.86313 14.7413,46.88954 0,3.03266 -0.2269,6.76516 -0.2267,3.49922 -0.4536,6.29859 h -76.6541 q 1.134,10.73094 9.7519,17.02954 8.6179,6.29859 23.1323,6.29859 9.2982,0 18.143,-1.63297 9.0715,-1.86625 14.7411,-4.43234 l 4.5358,28.22703 q -2.7215,1.39969 -7.2572,2.79938 -4.5358,1.39969 -10.2054,2.33281 -5.4429,1.16641 -11.7929,1.86625 -6.3501,0.69985 -12.7001,0.69985 -16.102,0 -28.1217,-4.89891 -11.7929,-4.89891 -19.7305,-13.29703 -7.7108,-8.63141 -11.5661,-20.29548 -3.6286,-11.66406 -3.6286,-25.19437 z m 79.3756,-13.29704 q -0.2269,-4.43234 -1.5876,-8.63141 -1.1339,-4.19906 -3.8553,-7.465 -2.4948,-3.26593 -6.5769,-5.36547 -3.8553,-2.09953 -9.7518,-2.09953 -5.6698,0 -9.7519,2.09953 -4.0822,1.86625 -6.8037,5.13219 -2.7214,3.26594 -4.3089,7.69828 -1.3607,4.19907 -2.0411,8.63141 z"
         style="font-style:normal;font-variant:normal;font-weight:bold;font-stretch:normal;font-size:158.75px;line-height:1.25;font-family:Ubuntu;-inkscape-font-specification:'Ubuntu Bold';letter-spacing:0px;word-spacing:0px;fill:#ffffff;fill-opacity:1;stroke:none;stroke-width:0.38335231"
         id="path861" />
      <path
         inkscape:connector-curvature="0"
         d="m 2245.5559,-401.30833 33.7914,-5.59875 v 36.1586 h 40.5948 v 28.92688 h -40.5948 v 43.15704 q 0,10.96422 3.6286,17.4961 3.8553,6.53187 15.1947,6.53187 5.4429,0 11.1126,-0.93312 5.8965,-1.16641 10.6589,-3.03266 l 4.7626,27.06063 q -6.1233,2.56609 -13.6072,4.43234 -7.484,1.86625 -18.3698,1.86625 -13.834,0 -22.9055,-3.7325 -9.0715,-3.96578 -14.5144,-10.73094 -5.4429,-6.99844 -7.7108,-16.79625 -2.0411,-9.79781 -2.0411,-21.69516 z"
         style="font-style:normal;font-variant:normal;font-weight:bold;font-stretch:normal;font-size:158.75px;line-height:1.25;font-family:Ubuntu;-inkscape-font-specification:'Ubuntu Bold';letter-spacing:0px;word-spacing:0px;fill:#ffffff;fill-opacity:1;stroke:none;stroke-width:0.38335231"
         id="path863" />
      <path
         inkscape:connector-curvature="0"
         d="m 2419.1297,-339.95535 q -4.5357,-1.1664 -10.6589,-2.33281 -6.1233,-1.39969 -13.1537,-1.39969 -3.175,0 -7.7108,0.69985 -4.309,0.46656 -6.5769,1.1664 v 93.77908 h -33.7912 V -364.2166 q 9.0715,-3.26594 21.318,-6.06532 12.4732,-3.03265 27.6681,-3.03265 2.7214,0 6.5767,0.46656 3.8555,0.23328 7.7108,0.93313 3.8555,0.46656 7.7108,1.39968 3.8554,0.69985 6.5769,1.86625 z"
         style="font-style:normal;font-variant:normal;font-weight:bold;font-stretch:normal;font-size:158.75px;line-height:1.25;font-family:Ubuntu;-inkscape-font-specification:'Ubuntu Bold';letter-spacing:0px;word-spacing:0px;fill:#ffffff;fill-opacity:1;stroke:none;stroke-width:0.38335231"
         id="path865" />
      <path
         inkscape:connector-curvature="0"
         d="m 2435.0297,-308.46237 q 0,-16.32969 4.7625,-28.46032 4.9893,-12.36391 12.9269,-20.52875 7.9375,-8.16485 18.143,-12.36391 10.4322,-4.19907 21.318,-4.19907 25.4002,0 40.1413,16.09641 14.7412,15.86313 14.7412,46.88954 0,3.03266 -0.2268,6.76516 -0.2267,3.49922 -0.4536,6.29859 h -76.6541 q 1.134,10.73094 9.7519,17.02954 8.6179,6.29859 23.1323,6.29859 9.2982,0 18.143,-1.63297 9.0715,-1.86625 14.7411,-4.43234 l 4.5358,28.22703 q -2.7215,1.39969 -7.2572,2.79938 -4.5358,1.39969 -10.2054,2.33281 -5.4429,1.16641 -11.7929,1.86625 -6.3501,0.69985 -12.7001,0.69985 -16.102,0 -28.1217,-4.89891 -11.7929,-4.89891 -19.7305,-13.29703 -7.7108,-8.63141 -11.5661,-20.29548 -3.6286,-11.66406 -3.6286,-25.19437 z m 79.3756,-13.29704 q -0.2269,-4.43234 -1.5876,-8.63141 -1.1339,-4.19906 -3.8553,-7.465 -2.4948,-3.26593 -6.5769,-5.36547 -3.8553,-2.09953 -9.7518,-2.09953 -5.6698,0 -9.7519,2.09953 -4.0822,1.86625 -6.8037,5.13219 -2.7214,3.26594 -4.3089,7.69828 -1.3607,4.19907 -2.0411,8.63141 z"
         style="font-style:normal;font-variant:normal;font-weight:bold;font-stretch:normal;font-size:158.75px;line-height:1.25;font-family:Ubuntu;-inkscape-font-specification:'Ubuntu Bold';letter-spacing:0px;word-spacing:0px;fill:#ffffff;fill-opacity:1;stroke:none;stroke-width:0.38335231"
         id="path867" />
      <path
         inkscape:connector-curvature="0"
         d="m 2618.7239,-272.30378 q 4.9893,0 9.5251,-0.23328 4.5357,-0.23328 7.2571,-0.69984 v -26.36079 q -2.0411,-0.46656 -6.1233,-0.93312 -4.0822,-0.46656 -7.4839,-0.46656 -4.7626,0 -9.0715,0.69984 -4.0822,0.46656 -7.2572,2.09953 -3.175,1.63297 -4.9893,4.43235 -1.8143,2.79937 -1.8143,6.99843 0,8.16485 5.216,11.43079 5.4429,3.03265 14.7413,3.03265 z m -2.7215,-101.71064 q 14.968,0 24.9466,3.49922 9.9787,3.49922 15.8752,10.0311 6.1231,6.53187 8.6179,15.86313 2.4946,9.33125 2.4946,20.76203 v 72.3172 q -7.2572,1.63297 -20.184,3.7325 -12.927,2.33281 -31.2967,2.33281 -11.5662,0 -21.0913,-2.09953 -9.2982,-2.09953 -16.1018,-6.76516 -6.8036,-4.8989 -10.4322,-12.59719 -3.6286,-7.69828 -3.6286,-18.89578 0,-10.73094 4.0821,-18.19594 4.3089,-7.465 11.3394,-11.89735 7.0303,-4.43234 16.1018,-6.29859 9.0715,-2.09953 18.8235,-2.09953 6.5767,0 11.566,0.69984 5.2162,0.46656 8.3912,1.39969 v -3.26594 q 0,-8.86469 -5.2161,-14.23016 -5.2161,-5.36547 -18.143,-5.36547 -8.6179,0 -17.009,1.39969 -8.3912,1.16641 -14.5144,3.49922 l -4.309,-27.99375 q 2.9483,-0.93313 7.2572,-1.86625 4.5357,-1.16641 9.7519,-1.86625 5.216,-0.93313 10.8858,-1.39969 5.8965,-0.69985 11.7929,-0.69985 z"
         style="font-style:normal;font-variant:normal;font-weight:bold;font-stretch:normal;font-size:158.75px;line-height:1.25;font-family:Ubuntu;-inkscape-font-specification:'Ubuntu Bold';letter-spacing:0px;word-spacing:0px;fill:#ffffff;fill-opacity:1;stroke:none;stroke-width:0.38335231"
         id="path869" />
      <path
         inkscape:connector-curvature="0"
         d="m 2697.3589,-401.30833 33.7912,-5.59875 v 36.1586 h 40.595 v 28.92688 h -40.595 v 43.15704 q 0,10.96422 3.6286,17.4961 3.8555,6.53187 15.1949,6.53187 5.4428,0 11.1125,-0.93312 5.8964,-1.16641 10.659,-3.03266 l 4.7625,27.06063 q -6.1232,2.56609 -13.6072,4.43234 -7.484,1.86625 -18.3697,1.86625 -13.8341,0 -22.9056,-3.7325 -9.0715,-3.96578 -14.5144,-10.73094 -5.4429,-6.99844 -7.7108,-16.79625 -2.041,-9.79781 -2.041,-21.69516 z"
         style="font-style:normal;font-variant:normal;font-weight:bold;font-stretch:normal;font-size:158.75px;line-height:1.25;font-family:Ubuntu;-inkscape-font-specification:'Ubuntu Bold';letter-spacing:0px;word-spacing:0px;fill:#ffffff;fill-opacity:1;stroke:none;stroke-width:0.38335231"
         id="path871" />
    </g>
    <path
       style="opacity:1;fill:url(#linearGradient2374);fill-opacity:1;stroke:none;stroke-width:17.44348526;stroke-miterlimit:4;stroke-dasharray:none;stroke-opacity:1"
       d="m 1901.3363,-1277.0866 c -107.864,0.2357 -212.9141,34.7672 -300.2293,98.6925 h 600.7167 c -87.3867,-63.9777 -192.5348,-98.5122 -300.4874,-98.6925 z m -324.5812,117.1948 c -37.0034,30.4586 -69.6143,65.9794 -96.8903,105.5366 h 842.4234 c -27.1082,-39.5204 -59.5341,-75.0394 -96.344,-105.5366 z m -114.1613,133.3179 c -17.7172,29.60892 -32.4516,60.93417 -43.9832,93.50793 h 47.965 c -6.7986,-30.95203 -8.5245,-61.97643 -3.9818,-91.68033 70.9711,7.8666 137.3343,46.11457 193.6429,91.68033 h 488.8028 c 56.6444,-46.12743 123.5784,-85.02343 195.2125,-92.96353 4.6057,30.11446 2.7737,61.58594 -4.261,92.96353 h 48.2145 c -11.5224,-32.57251 -26.2478,-63.89771 -43.955,-93.50793 z m 877.6582,0.5444 c -26.9866,3.4426 -53.2771,12.2453 -78.615,25.0968 25.7961,-11.9387 52.1882,-20.7083 78.615,-25.0968 z m -877.6582,1.2832 c 26.4156,4.3867 52.7981,13.1484 78.5834,25.07897 -25.3277,-12.84267 -51.6081,-21.63797 -78.5834,-25.07897 z m -53.2817,121.2589 c -8.1921,28.15871 -13.9988,55.14206 -17.3576,84.29306 h 122.2116 c -16.7052,-26.86448 -30.2227,-55.34518 -39.5631,-84.29306 z m 281.1301,0 c 31.4804,28.93158 58.7758,58.71402 80.7582,84.29306 h 259.3383 c 21.8443,-25.48324 49.0512,-55.28098 80.4682,-84.29306 z m 637.3801,0 c -9.4734,28.96569 -23.1066,57.45115 -39.9308,84.29306 h 122.5951 c -3.2929,-29.14498 -9.0322,-56.12833 -17.156,-84.29306 z m -938.1698,115.73309 c -0.8065,10.16873 -1.3154,18.53316 -1.5258,28.73222 0.1873,18.2538 1.3305,36.48302 3.4247,54.61469 h 227.3889 c -30.866,-22.96325 -59.2409,-51.5089 -83.214,-83.34691 z m 407.8504,0 c 7.7793,9.52249 14.4131,17.77333 19.5673,23.99919 43.7323,52.82344 124.9731,51.54025 168.7054,-1.28319 4.9051,-5.92469 11.2278,-13.77529 18.5227,-22.716 z m 468.6375,0 c -24.2177,31.915 -52.851,60.47469 -83.9708,83.34691 h 229.4096 c 1.95,-18.13944 2.9491,-36.36866 2.9935,-54.61469 -0.057,-10.1943 -0.4117,-18.55898 -1.0645,-28.73222 z m -868.5137,127.76379 c 4.6023,23.87079 10.8634,45.55612 18.7383,68.53894 h 309.533 c -13.9266,-13.68477 -32.9834,-23.1255 -51.0134,-20.14234 11.537,-5.046 21.1708,-7.71269 44.4344,-18.13845 -11.681,0 -22.8675,-1.21397 -34.5595,-1.00834 20.1025,-4.1031 37.3124,-10.09124 51.8443,-19.23757 -12.2247,-2.29329 -24.4246,-5.67743 -36.513,-10.01224 z m 701.4809,0 c -10.8935,3.72343 -21.869,6.66797 -32.8656,8.73081 14.5322,9.14633 31.7418,15.13446 51.8442,19.23756 -11.6917,-0.20563 -22.8781,1.00659 -34.559,1.00659 23.2633,10.42576 32.897,13.0922 44.4341,18.13845 -18.5875,-3.0757 -38.2629,7.05415 -52.2865,21.42553 h 310.746 c 7.8944,-22.98131 14.1754,-44.66664 18.7968,-68.53894 z m -666.1629,112.95356 c 12.4852,28.45412 27.4867,53.88751 44.8195,79.62403 h 378.8622 c -37.859,-35.5153 -85.377,-41.94308 -134.3459,-38.37332 6.576,-4.12999 25.2731,-15.76546 36.5343,-25.19341 -10.6319,3.3385 -23.4332,5.61524 -36.5343,6.04657 15.4142,-3.37085 22.6085,-11.77792 23.9755,-22.10387 z m 623.8504,0 c 1.7817,9.73489 9.0007,17.59076 23.7705,20.82068 -13.101,-0.43133 -25.9024,-2.70631 -36.5343,-6.04481 11.2611,9.42795 29.9584,21.06167 36.5343,25.19165 -49.5492,-3.61214 -97.6117,3.01952 -135.6862,39.65651 h 380.6039 c 17.2432,-25.7463 32.157,-51.17944 44.5596,-79.62403 z"
       id="path826-1"
       inkscape:connector-curvature="0" />
  </g>
</svg>
